<svg width="36" height="36" viewBox="0 0 36 36" fill="none" xmlns="http://www.w3.org/2000/svg">
<g opacity="0.6">
<circle cx="18" cy="18" r="17" stroke="#FF2E65" stroke-width="2"/>
<path d="M19.49 16.775C20.41 16.925 21.115 17.27 21.605 17.81C22.095 18.34 22.34 19 22.34 19.79C22.34 20.4 22.18 20.965 21.86 21.485C21.54 21.995 21.05 22.405 20.39 22.715C19.74 23.025 18.94 23.18 17.99 23.18C17.25 23.18 16.52 23.085 15.8 22.895C15.09 22.695 14.485 22.415 13.985 22.055L14.93 20.195C15.33 20.495 15.79 20.73 16.31 20.9C16.84 21.06 17.38 21.14 17.93 21.14C18.54 21.14 19.02 21.025 19.37 20.795C19.72 20.555 19.895 20.22 19.895 19.79C19.895 18.93 19.24 18.5 17.93 18.5H16.82V16.895L18.98 14.45H14.51V12.5H21.86V14.075L19.49 16.775Z" fill="#FF2E65"/>
</g>
</svg>
