<svg width="36" height="36" viewBox="0 0 36 36" fill="none" xmlns="http://www.w3.org/2000/svg">
<g opacity="0.6">
<circle cx="18" cy="18" r="17" stroke="#FF2E65" stroke-width="2"/>
<path d="M22.43 21.02V23H14.495V21.425L18.545 17.6C18.975 17.19 19.265 16.84 19.415 16.55C19.565 16.25 19.64 15.955 19.64 15.665C19.64 15.245 19.495 14.925 19.205 14.705C18.925 14.475 18.51 14.36 17.96 14.36C17.5 14.36 17.085 14.45 16.715 14.63C16.345 14.8 16.035 15.06 15.785 15.41L14.015 14.27C14.425 13.66 14.99 13.185 15.71 12.845C16.43 12.495 17.255 12.32 18.185 12.32C18.965 12.32 19.645 12.45 20.225 12.71C20.815 12.96 21.27 13.32 21.59 13.79C21.92 14.25 22.085 14.795 22.085 15.425C22.085 15.995 21.965 16.53 21.725 17.03C21.485 17.53 21.02 18.1 20.33 18.74L17.915 21.02H22.43Z" fill="#FF2E65"/>
</g>
</svg>
